<svg width="345" height="42" viewBox="0 0 345 42" fill="none" xmlns="http://www.w3.org/2000/svg">
<path d="M13.11 35V9.654H8.398L0.418 17.672L3.496 20.902L7.714 16.608V35H13.11ZM27.403 35.456C34.623 35.456 37.891 28.882 37.891 22.346C37.891 15.81 34.623 9.274 27.403 9.274C20.145 9.274 16.915 15.81 16.915 22.346C16.915 28.882 20.145 35.456 27.403 35.456ZM27.403 30.668C23.755 30.668 22.387 27.02 22.387 22.346C22.387 17.672 23.755 14.062 27.403 14.062C31.013 14.062 32.381 17.672 32.381 22.346C32.381 27.02 31.013 30.668 27.403 30.668Z" fill="#222B3A"/>
<path d="M54.082 20V12.412H56.798V10.662H49.35V12.412H52.08V20H54.082ZM59.8413 20.168C60.8913 20.168 61.9553 19.846 62.6273 19.23L61.8433 18.082C61.4093 18.502 60.6113 18.754 60.0373 18.754C58.8893 18.754 58.2033 18.04 58.0913 17.186H63.1173V16.794C63.1173 14.582 61.7453 13.07 59.7293 13.07C57.6713 13.07 56.2293 14.652 56.2293 16.612C56.2293 18.782 57.7833 20.168 59.8413 20.168ZM61.3953 15.982H58.0633C58.1473 15.31 58.6233 14.484 59.7293 14.484C60.9053 14.484 61.3533 15.338 61.3953 15.982ZM72.3955 20V13.238H70.0435L68.4055 17.27L66.7395 13.238H64.4015V20H66.1795V15.604L67.9995 20H68.8115L70.6175 15.604V20H72.3955ZM54.292 35C55.65 35 56.378 34.188 56.378 33.166C56.378 32.354 55.832 31.682 55.09 31.514C55.72 31.332 56.238 30.786 56.238 29.974C56.238 29.064 55.538 28.238 54.166 28.238H49.882V35H54.292ZM53.858 33.544H51.66V32.284H53.858C54.306 32.284 54.558 32.578 54.558 32.914C54.558 33.306 54.292 33.544 53.858 33.544ZM53.802 30.828H51.66V29.694H53.802C54.194 29.694 54.432 29.932 54.432 30.268C54.432 30.576 54.194 30.828 53.802 30.828ZM61.2351 35.168C62.6211 35.168 63.4611 34.566 63.9091 33.936L62.7471 32.858C62.4251 33.306 61.9351 33.586 61.3191 33.586C60.2411 33.586 59.4851 32.788 59.4851 31.612C59.4851 30.436 60.2411 29.652 61.3191 29.652C61.9351 29.652 62.4251 29.904 62.7471 30.38L63.9091 29.288C63.4611 28.672 62.6211 28.07 61.2351 28.07C59.1491 28.07 57.6511 29.54 57.6511 31.612C57.6511 33.698 59.1491 35.168 61.2351 35.168ZM68.2495 35.168C69.2995 35.168 70.3635 34.846 71.0355 34.23L70.2515 33.082C69.8175 33.502 69.0195 33.754 68.4455 33.754C67.2975 33.754 66.6115 33.04 66.4995 32.186H71.5255V31.794C71.5255 29.582 70.1535 28.07 68.1375 28.07C66.0795 28.07 64.6375 29.652 64.6375 31.612C64.6375 33.782 66.1915 35.168 68.2495 35.168ZM69.8035 30.982H66.4715C66.5555 30.31 67.0315 29.484 68.1375 29.484C69.3135 29.484 69.7615 30.338 69.8035 30.982ZM78.0317 28.238H72.8097V35H74.5877V29.792H78.0317V28.238ZM82.3032 35.168C84.5432 35.168 85.8872 33.544 85.8872 31.612C85.8872 29.694 84.5432 28.07 82.3032 28.07C80.0772 28.07 78.7332 29.694 78.7332 31.612C78.7332 33.544 80.0772 35.168 82.3032 35.168ZM82.3032 33.586C81.1972 33.586 80.5812 32.676 80.5812 31.612C80.5812 30.562 81.1972 29.652 82.3032 29.652C83.4092 29.652 84.0392 30.562 84.0392 31.612C84.0392 32.676 83.4092 33.586 82.3032 33.586Z" fill="#222B3A"/>
<path d="M252.236 35.456C258.012 35.456 261.926 31.694 261.926 26.754C261.926 21.358 257.86 18.508 253.3 18.508C250.526 18.508 247.98 20.066 246.802 21.776C246.764 21.586 246.764 21.434 246.764 21.244C246.764 17.216 249.386 14.062 253.11 14.062C255.352 14.062 256.796 14.746 258.164 16.038L260.596 11.896C258.772 10.338 256.188 9.274 253.11 9.274C245.624 9.274 241.292 14.708 241.292 22.384C241.292 29.528 244.522 35.456 252.236 35.456ZM251.932 30.668C248.398 30.668 247.03 27.97 246.802 25.538C248.018 24.018 249.842 23.144 251.742 23.144C254.174 23.144 256.454 24.284 256.454 26.944C256.454 28.73 254.858 30.668 251.932 30.668Z" fill="#222B3A"/>
<path d="M274.082 20V12.412H276.798V10.662H269.35V12.412H272.08V20H274.082ZM279.841 20.168C280.891 20.168 281.955 19.846 282.627 19.23L281.843 18.082C281.409 18.502 280.611 18.754 280.037 18.754C278.889 18.754 278.203 18.04 278.091 17.186H283.117V16.794C283.117 14.582 281.745 13.07 279.729 13.07C277.671 13.07 276.229 14.652 276.229 16.612C276.229 18.782 277.783 20.168 279.841 20.168ZM281.395 15.982H278.063C278.147 15.31 278.623 14.484 279.729 14.484C280.905 14.484 281.353 15.338 281.395 15.982ZM292.396 20V13.238H290.044L288.406 17.27L286.74 13.238H284.402V20H286.18V15.604L288 20H288.812L290.618 15.604V20H292.396ZM274.292 35C275.65 35 276.378 34.188 276.378 33.166C276.378 32.354 275.832 31.682 275.09 31.514C275.72 31.332 276.238 30.786 276.238 29.974C276.238 29.064 275.538 28.238 274.166 28.238H269.882V35H274.292ZM273.858 33.544H271.66V32.284H273.858C274.306 32.284 274.558 32.578 274.558 32.914C274.558 33.306 274.292 33.544 273.858 33.544ZM273.802 30.828H271.66V29.694H273.802C274.194 29.694 274.432 29.932 274.432 30.268C274.432 30.576 274.194 30.828 273.802 30.828ZM278.085 28.238V35H282.173C283.685 35 284.525 33.978 284.525 32.774C284.525 31.584 283.741 30.562 282.173 30.562H279.863V28.238H278.085ZM281.907 32.046C282.411 32.046 282.705 32.354 282.705 32.774C282.705 33.194 282.411 33.502 281.907 33.502H279.863V32.046H281.907ZM287.199 35V28.238H285.407V35H287.199ZM295.31 35V28.238H288.954V35H290.732V29.792H293.532V35H295.31ZM300.211 35.168C302.451 35.168 303.795 33.544 303.795 31.612C303.795 29.694 302.451 28.07 300.211 28.07C297.985 28.07 296.641 29.694 296.641 31.612C296.641 33.544 297.985 35.168 300.211 35.168ZM300.211 33.586C299.105 33.586 298.489 32.676 298.489 31.612C298.489 30.562 299.105 29.652 300.211 29.652C301.317 29.652 301.947 30.562 301.947 31.612C301.947 32.676 301.317 33.586 300.211 33.586ZM304.484 35.168C306.206 35.168 307.046 34.062 307.326 31.724L307.55 29.792H309.692V35H311.47V28.238H305.996L305.562 31.514C305.352 33.152 305.03 33.712 304.484 33.712V35.168ZM315.014 35V32.298H317.814V35H319.592V28.238H317.814V30.744H315.014V28.238H313.236V35H315.014ZM324.535 35.168C325.585 35.168 326.649 34.846 327.321 34.23L326.537 33.082C326.103 33.502 325.305 33.754 324.731 33.754C323.583 33.754 322.897 33.04 322.785 32.186H327.811V31.794C327.811 29.582 326.439 28.07 324.423 28.07C322.365 28.07 320.923 29.652 320.923 31.612C320.923 33.782 322.477 35.168 324.535 35.168ZM326.089 30.982H322.757C322.841 30.31 323.317 29.484 324.423 29.484C325.599 29.484 326.047 30.338 326.089 30.982ZM330.873 35V32.298H333.673V35H335.451V28.238H333.673V30.744H330.873V28.238H329.095V35H330.873ZM340.352 35.168C342.592 35.168 343.936 33.544 343.936 31.612C343.936 29.694 342.592 28.07 340.352 28.07C338.126 28.07 336.782 29.694 336.782 31.612C336.782 33.544 338.126 35.168 340.352 35.168ZM340.352 33.586C339.246 33.586 338.63 32.676 338.63 31.612C338.63 30.562 339.246 29.652 340.352 29.652C341.458 29.652 342.088 30.562 342.088 31.612C342.088 32.676 341.458 33.586 340.352 33.586Z" fill="#222B3A"/>
</svg>
