<svg width="71" height="78" viewBox="0 0 71 78" fill="none" xmlns="http://www.w3.org/2000/svg">
<path d="M42.5035 0.0271157C42.4379 0.0212856 42.3802 0.0295449 42.3177 0.0287352C42.3137 0.0287352 42.3094 0.0271157 42.3054 0.0271157C23.7839 -0.614686 4.31594 10.1492 5.99842 30.9763C6.00506 31.0606 6.02595 31.1353 6.04117 31.2138C6.01688 31.4294 6.01688 31.655 6.06919 31.9002C7.08477 36.653 5.52602 40.8315 1.62469 43.7452C1.4459 43.8784 1.30889 44.0314 1.18921 44.1909C0.794865 44.45 0.483601 44.8473 0.315823 45.3283C-0.416021 47.4286 0.139947 49.5668 1.81838 51.0281C2.09498 51.2681 2.41548 51.4318 2.74893 51.5197C3.83236 52.1185 4.96519 52.5164 6.14158 52.7944C5.89979 54.0988 6.01866 55.4177 6.64686 56.6595C5.47387 58.9457 6.25251 61.4679 8.56837 62.8445C8.69906 62.9225 8.82943 62.981 8.9577 63.0262C9.35074 63.4942 9.38864 64.2458 9.24386 64.9687C9.199 65.1898 9.19333 65.411 9.21017 65.6266C9.19997 65.8224 9.20612 66.0214 9.24386 66.2221C9.8544 69.4243 12.5897 71.1924 15.7195 71.2493C15.8881 71.2527 16.0436 71.2352 16.1903 71.2055C16.3351 71.2122 16.4868 71.2039 16.6434 71.1785C21.6698 70.3634 27.3927 70.819 29.2807 76.3396C29.6582 77.4425 30.6668 77.8166 31.5707 77.671C31.8753 77.8997 32.2763 78.0295 32.7817 77.9942C41.8898 77.3576 50.9178 76.0345 59.9615 74.8207C60.2815 74.7778 60.5586 74.6743 60.7978 74.5277C61.8941 74.1857 62.7797 72.9588 62.0716 71.6363C56.0289 60.3699 68.2788 48.0787 70.6037 37.2555C70.6547 37.0215 70.6555 36.8048 70.635 36.5983C73.0922 18.822 60.7921 1.67429 42.5035 0.0271157ZM66.7772 35.8056C66.7534 35.9701 66.7502 36.1275 66.7592 36.2788C64.2337 47.8595 53.1582 59.0552 57.5429 71.1811C49.3071 72.2995 41.0767 73.4476 32.7806 74.0281C32.7218 74.0322 32.6705 74.0479 32.6141 74.057C29.649 67.4574 22.7498 66.274 15.9237 67.3078C15.8555 67.2995 15.7922 67.2846 15.719 67.2831C14.9418 67.2682 14.536 67.1878 13.9295 66.8177C13.9826 66.8342 13.6179 66.543 13.6212 66.5479C13.569 66.4953 13.5365 66.464 13.5126 66.4434C13.5126 66.4277 13.4918 66.3809 13.4152 66.2567C13.2997 66.0716 13.2145 65.811 13.1437 65.5166C13.4956 63.0858 12.8054 60.974 10.7684 59.4197C10.6047 59.2955 10.4214 59.2257 10.2319 59.1796C10.1731 59.1302 10.1159 59.0826 10.0542 59.0202C10.0654 59.0251 10.0551 59.0005 10.0198 58.9436C10.0198 58.8934 10.0163 58.8771 10.0107 58.8819C10.035 58.7768 10.0583 58.6714 10.0954 58.5693C10.0962 58.5653 10.3919 58.1065 10.4897 57.9682C10.7631 57.5824 10.8191 57.1146 10.7331 56.6647C10.8144 56.2208 10.7566 55.757 10.4897 55.3704C9.73942 54.2832 9.88695 53.358 10.4897 52.215C11.3529 50.5791 9.79804 49.086 8.42068 49.2389C8.40626 49.2371 8.39347 49.2322 8.37954 49.2298C6.98225 49.0455 5.63161 48.6367 4.42072 47.9131C4.33392 47.8621 4.24873 47.8309 4.16371 47.7922C4.10314 47.7042 4.04694 47.6145 3.99625 47.5217C3.98767 47.4961 3.98103 47.4739 3.96921 47.4377C3.95933 47.3917 3.95237 47.3612 3.94573 47.3316C3.94233 47.2404 3.94492 47.1507 3.94897 47.0594C3.95561 47.0347 3.9684 46.9779 3.98524 46.89C9.02426 42.9525 11.1887 37.5405 9.96258 31.2148C9.96501 31.1355 9.97327 31.0614 9.96663 30.9771C8.4542 12.2562 25.8706 3.42609 42.3044 3.99501C42.3562 3.99663 42.4022 3.98756 42.4524 3.98594C42.4706 3.98756 42.4853 3.99323 42.5033 3.99501C58.1054 5.40056 69.0001 20.6167 66.7772 35.8056Z" fill="#EB5757"/>
<path d="M46.737 9.64393H34.7371C33.8514 9.64393 33.3334 10.2056 33.1701 10.8692C32.8119 11.1345 32.5797 11.5629 32.6318 12.1703C33.5068 22.3253 34.5948 32.4557 36.2713 42.5131C36.4324 43.4803 37.1845 43.8191 37.927 43.709C38.0488 43.7352 38.1771 43.7493 38.316 43.7493H43.3686C44.482 43.7493 45.0198 42.8652 44.9936 42.0025C45.0224 41.8908 45.0445 41.7714 45.0527 41.644C45.7327 31.6304 47.3291 21.7196 48.4212 11.7491C48.4523 11.4662 48.4186 11.2236 48.3414 11.0156C48.223 10.2899 47.6876 9.64393 46.737 9.64393ZM41.783 40.3808H39.3217C37.8546 31.3047 36.8744 22.1693 36.0742 13.0123H44.9063C43.8712 22.1374 42.4748 31.2197 41.783 40.3808Z" fill="#EB5757"/>
<path d="M35.7372 48.4309C32.0497 53.9276 40.7087 59.2978 44.6669 54.2861C45.9786 52.625 46.2162 51.023 45.7895 49.6777C44.6267 46.0166 38.5345 44.2599 35.7372 48.4309ZM40.9144 53.0395C40.8149 53.0626 40.7187 53.0782 40.625 53.0864C38.3363 53.297 37.8709 49.3849 40.5278 49.2502C42.8126 49.135 42.9497 52.5708 40.9144 53.0395Z" fill="#EB5757"/>
</svg>
